<?xml version="1.0" encoding="utf-8"?>
<!-- Generator: Adobe Illustrator 22.0.0, SVG Export Plug-In . SVG Version: 6.00 Build 0)  -->
<svg version="1.1" id="Capa_1" xmlns="http://www.w3.org/2000/svg" xmlns:xlink="http://www.w3.org/1999/xlink" x="0px" y="0px"
	 viewBox="0 0 500 500" style="enable-background:new 0 0 500 500;" xml:space="preserve">
<style type="text/css">
	.st0{fill:#242831;}
</style>
<g>
	<path class="st0" d="M101.5,31.5v70h-70v-70H101.5 M133.5-0.5h-134v134h134V-0.5L133.5-0.5z"/>
</g>
<g>
	<path class="st0" d="M286,32v70h-70V32H286 M318,0H184v134h134V0L318,0z"/>
</g>
<g>
	<path class="st0" d="M468,32v70h-70V32H468 M500,0H366v134h134V0L500,0z"/>
</g>
<g>
	<path class="st0" d="M101.5,214.5v70h-70v-70H101.5 M133.5,182.5h-134v134h134V182.5L133.5,182.5z"/>
</g>
<g>
	<path class="st0" d="M286,215v70h-70v-70H286 M318,183H184v134h134V183L318,183z"/>
</g>
<g>
	<path class="st0" d="M468,215v70h-70v-70H468 M500,183H366v134h134V183L500,183z"/>
</g>
<g>
	<path class="st0" d="M101.5,398.5v70h-70v-70H101.5 M133.5,366.5h-134v134h134V366.5L133.5,366.5z"/>
</g>
<g>
	<path class="st0" d="M286,399v70h-70v-70H286 M318,367H184v134h134V367L318,367z"/>
</g>
</svg>
